<?xml version="1.0" standalone="no"?>
<!DOCTYPE svg PUBLIC "-//W3C//DTD SVG 20010904//EN"
 "http://www.w3.org/TR/2001/REC-SVG-20010904/DTD/svg10.dtd">
<svg version="1.0" xmlns="http://www.w3.org/2000/svg"
 width="200.000000pt" height="200.000000pt" viewBox="0 0 200.000000 200.000000"
 preserveAspectRatio="xMidYMid meet">
<metadata>
Created by potrace 1.11, written by Peter Selinger 2001-2013
</metadata>
<g transform="translate(0.000000,200.000000) scale(0.100000,-0.100000)"
fill="#000000" stroke="none">
<path d="M110 1420 c0 -6 162 -11 453 -12 l452 -3 0 -405 0 -405 -458 -3
c-299 -1 -456 -6 -452 -12 8 -13 1735 -14 1735 -1 0 6 -19 12 -42 14 -41 3
-41 4 10 5 49 2 68 14 40 25 -8 3 -6 6 5 6 11 1 17 -6 17 -19 0 -11 -4 -20
-10 -20 -5 0 -10 -5 -10 -11 0 -6 8 -9 18 -7 11 2 16 11 14 26 -2 13 2 22 10
22 8 0 9 3 3 8 -12 8 -14 742 -2 742 12 0 8 48 -5 53 -10 3 -12 -66 -10 -332
2 -185 -1 -363 -6 -396 l-8 -60 -8 85 c-4 47 -6 212 -4 368 2 181 -1 284 -7
286 -5 3 -4 5 3 5 18 1 15 21 -4 21 -8 0 -13 4 -10 9 3 4 -22 11 -56 15 -104
10 -1668 7 -1668 -4z m1618 -17 c-21 -2 -57 -2 -80 0 -24 2 -7 4 37 4 44 0 63
-2 43 -4z m79 1 c-3 -3 -12 -4 -19 -1 -8 3 -5 6 6 6 11 1 17 -2 13 -5z"/>
<path d="M1864 1040 c0 -179 2 -252 3 -162 2 89 2 235 0 325 -1 89 -3 16 -3
-163z"/>
<path d="M675 1234 c-46 -24 -183 -171 -193 -207 -9 -33 -32 -71 -102 -168
-47 -65 -67 -85 -95 -92 -18 -4 -18 -5 3 -6 14 -1 47 20 88 54 52 44 69 54 89
49 18 -4 30 1 50 21 14 16 26 37 26 49 1 12 2 27 3 33 0 7 21 23 46 35 30 15
55 39 75 70 34 53 47 58 63 24 6 -13 32 -52 59 -86 53 -68 74 -96 117 -159 28
-40 28 -42 11 -61 -10 -11 -27 -20 -37 -20 -11 0 -16 -4 -13 -10 7 -11 74 -14
99 -4 9 3 16 11 16 17 0 27 -56 155 -83 190 -16 21 -46 81 -67 133 -20 52 -46
106 -56 119 -25 32 -62 39 -99 19z"/>
</g>
</svg>
