<svg width="300" height="164" viewBox="0 0 300 164" fill="none" xmlns="http://www.w3.org/2000/svg">
<g clip-path="url(#clip0)">
<path d="M300 153.743C300 144.792 295.466 137.535 289.873 137.535C286.358 137.535 283.262 140.403 281.446 144.755C280.833 144.5 280.175 144.368 279.511 144.366C277.818 144.366 276.253 145.235 274.976 146.706C273.34 141.279 269.869 137.535 265.851 137.535C262.095 137.535 258.819 140.811 257.071 145.672C256.1 144.851 254.876 144.39 253.605 144.366C249.313 144.366 245.833 149.935 245.833 156.805C245.816 159.095 246.231 161.367 247.058 163.502H297.958C299.239 160.787 300 157.408 300 153.743Z" fill="#FCC006"/>
<path d="M263.694 60.1501C255.719 42.867 240.112 28.123 221.258 25.72C216.273 25.0846 211.068 25.3395 206.443 27.3077C200.371 29.8914 195.897 35.1065 191.374 39.9173C181.799 50.1003 171.084 59.1435 159.441 66.8678C153.694 70.6791 147.531 74.2351 140.708 75.2102C127.029 77.1654 113.498 67.8202 107.26 55.4687C103.363 47.753 101.562 38.6942 98.4117 30.6688C94.7835 30.6619 90.4609 30.6632 85.8103 30.6847C72.9557 30.744 62.4925 30.9343 62.4925 30.9343C62.4925 30.9343 74.9296 14.4304 85.7637 20.545C89.2259 22.499 92.8522 24.2427 96.1849 25.7116C94.2916 22.0632 91.9035 18.7805 88.6181 16.1411C82.14 10.9368 73.3661 9.477 65.0712 9.86457C56.361 10.2716 47.5708 12.6077 40.493 17.7099C27.8845 26.799 22.6777 42.7974 18.2214 57.7048L28.993 63.1144C33.6133 59.1128 40.3696 55.1544 46.597 58.669C57.431 64.7836 69.8766 68.8434 69.8766 68.8434C69.8766 68.8434 59.4983 68.7494 46.6436 68.8087C44.4847 68.8187 42.3958 68.8324 40.4099 68.8482L160 128.909C199.444 129.465 229.186 127.328 266.667 128.909C268.621 128.991 273.018 118.726 273.033 116.024C273.136 96.9842 271.669 77.4332 263.694 60.1501ZM225.394 65.3302C212.539 65.3896 202.076 65.5799 202.076 65.5799C202.076 65.5799 214.513 49.076 225.347 55.1905C236.181 61.3051 248.627 65.3649 248.627 65.3649C248.627 65.3649 238.248 65.2709 225.394 65.3302L225.394 65.3302Z" fill="#F2F2F2"/>
<path opacity="0.3" d="M258.889 121.812C258.889 115.304 254.866 110.028 249.905 110.028C246.786 110.028 244.039 112.113 242.428 115.278C241.875 115.091 241.295 114.995 240.711 114.995C239.201 115.02 237.76 115.63 236.688 116.696C235.236 112.75 232.157 110.028 228.593 110.028C225.261 110.028 222.354 112.409 220.803 115.944C219.893 115.332 218.824 115.002 217.728 114.995C213.92 114.995 210.833 119.044 210.833 124.039C210.822 125.724 211.194 127.389 211.92 128.909H257.077C258.288 126.742 258.912 124.296 258.889 121.812Z" fill="#FCC006"/>
<path d="M300 163.972H22.7778V163.415H299.722L300 163.972Z" fill="#2F2E41"/>
<path d="M277.222 129.465H0V128.909H276.944L277.222 129.465Z" fill="#2F2E41"/>
<path d="M117.675 78.2341C117.675 78.2341 119.421 65.4073 122.331 68.9055C125.241 72.4038 122.331 77.6511 122.331 77.6511L120.003 80.5663L117.675 78.8172V78.2341Z" fill="#FFB8B8"/>
<path d="M110.691 82.3154C110.691 82.3154 116.511 75.902 117.675 77.068C118.839 78.2341 122.331 78.8172 121.749 81.1493C121.167 83.4814 108.945 91.0609 108.945 91.0609L110.691 82.3154Z" fill="#FCC006"/>
<path opacity="0.1" d="M110.691 82.3154C110.691 82.3154 116.511 75.902 117.675 77.068C118.839 78.2341 122.331 78.8172 121.749 81.1493C121.167 83.4814 108.945 91.0609 108.945 91.0609L110.691 82.3154Z" fill="black"/>
<path d="M77.5177 81.7323V86.3966C77.5177 86.3966 76.9357 96.8913 80.4276 96.3083C83.9195 95.7252 82.1736 86.9797 82.1736 86.9797L81.5916 81.7323H77.5177Z" fill="#FFB8B8"/>
<path d="M79.2637 115.548C79.2637 115.548 74.0258 123.711 72.2798 124.294C70.5338 124.877 61.222 130.124 60.058 135.372L51.9102 145.866L55.9841 151.114C55.9841 151.114 74.6078 131.29 79.8457 129.541C85.0835 127.792 90.3214 119.047 90.3214 119.047L79.2637 115.548Z" fill="#FFB8B8"/>
<path d="M120.585 102.139C120.585 102.139 131.643 103.888 129.897 110.884C128.151 117.881 111.273 132.457 111.273 132.457L110.691 135.955L104.289 137.121L101.379 134.206L101.961 132.457C101.961 132.457 108.945 126.043 109.527 123.711C110.109 121.379 116.511 112.05 119.421 111.467L115.347 109.135L120.585 102.139Z" fill="#FFB8B8"/>
<path d="M53.6562 145.866C53.6562 145.866 55.9841 142.368 52.4922 142.951C49.0002 143.534 46.6723 144.117 46.6723 146.449C46.6723 148.782 49.5822 165.107 53.0742 163.94C56.5661 162.774 53.6562 157.527 53.6562 157.527C53.6562 157.527 55.4021 152.863 56.5661 152.28C57.7301 151.697 57.7301 148.782 56.5661 148.782C55.4021 148.782 53.0742 147.032 53.6562 145.866Z" fill="#2F2E41"/>
<path d="M103.125 133.04C103.125 133.04 103.125 130.124 100.797 133.04C98.4693 135.955 97.3053 138.287 99.6333 140.036C101.961 141.785 110.109 145.866 110.109 145.866C110.109 145.866 118.839 147.615 117.675 143.534C117.675 143.534 111.855 140.619 111.855 138.287C111.855 135.955 111.855 131.873 110.109 133.04C108.363 134.206 103.125 134.789 103.125 133.04Z" fill="#2F2E41"/>
<path d="M92.0674 89.3118C92.0674 89.3118 83.9196 90.4779 84.5015 102.139C84.5015 102.139 74.0258 112.633 76.9357 116.131C79.8456 119.63 86.2475 126.043 88.5755 124.294C90.9034 122.545 97.8873 109.135 97.8873 109.135C97.8873 109.135 114.183 114.965 117.093 112.05C120.003 109.135 122.913 102.139 122.913 102.139L108.363 94.5591L92.0674 89.3118Z" fill="#2F2E41"/>
<path d="M114.765 56.0787C118.622 56.0787 121.749 52.9463 121.749 49.0823C121.749 45.2183 118.622 42.0859 114.765 42.0859C110.908 42.0859 107.781 45.2183 107.781 49.0823C107.781 52.9463 110.908 56.0787 114.765 56.0787Z" fill="#FFB8B8"/>
<path d="M109.527 49.6653C109.527 49.6653 105.453 56.0787 104.289 56.6618C103.125 57.2448 112.437 63.0752 112.437 63.0752C112.437 63.0752 112.437 55.4957 115.347 53.7466L109.527 49.6653Z" fill="#FFB8B8"/>
<path d="M108.945 56.0787C108.945 56.0787 99.6332 53.1636 97.8873 57.8278C96.1413 62.4921 92.0674 71.2377 92.6494 77.0681C93.2314 82.8984 94.3953 81.7324 92.6494 83.4815C90.9034 85.2306 89.7394 84.0645 90.3214 86.3966C90.9034 88.7288 91.4854 88.7288 90.9034 89.8949C90.3214 91.061 97.8873 95.1422 104.289 95.7252L110.691 96.3083C110.691 96.3083 110.691 85.8136 111.855 83.4815C113.019 81.1493 115.347 76.485 115.347 74.7359V70.1079C115.347 67.0276 114.545 64.0006 113.019 61.3261C113.019 61.3261 109.527 56.0787 108.945 56.0787Z" fill="#FCC006"/>
<path d="M101.961 58.4109C101.961 58.4109 80.4276 60.16 78.0997 65.9904C75.7717 71.8207 74.6078 83.4814 76.9357 83.4814C79.2637 83.4814 82.1736 84.6475 82.7556 83.4814C83.3376 82.3154 85.6655 70.6547 86.2475 70.6547C86.8295 70.6547 104.289 68.9055 104.289 68.9055C104.289 68.9055 111.855 59.577 101.961 58.4109Z" fill="#FCC006"/>
<path d="M115.046 47.3478C115.046 47.3478 116.899 44.1213 119.215 46.9238C121.532 49.7263 125.301 44.5762 124.722 43.4773C124.144 42.3783 122.101 43.5267 118.599 42.3801C115.098 41.2334 108.354 38.8976 107.224 46.5173C106.095 54.137 108.785 53.3382 108.785 53.3382C108.785 53.3382 110.018 46.5863 111.132 48.5257L112.247 50.4652L113.214 50.7035L115.046 47.3478Z" fill="#2F2E41"/>
<path d="M180.919 29.4941C185.625 29.4941 189.44 25.6724 189.44 20.9581C189.44 16.2438 185.625 12.4221 180.919 12.4221C176.213 12.4221 172.398 16.2438 172.398 20.9581C172.398 25.6724 176.213 29.4941 180.919 29.4941Z" fill="#2F2E41"/>
<path d="M178.195 27.2763C178.195 27.2763 178.636 35.2272 177.755 35.2272C176.873 35.2272 183.266 38.9819 183.266 38.9819L187.234 36.7733V34.123C187.234 34.123 181.943 33.4604 184.148 27.718C186.353 21.9756 178.195 27.2763 178.195 27.2763Z" fill="#9F616A"/>
<path d="M159.676 114.516L159.015 121.142L161.22 121.804L162.983 120.038L163.645 114.516H159.676Z" fill="#9F616A"/>
<path d="M191.423 118.271L192.526 122.467L195.612 124.455L198.919 122.688L195.171 116.504L191.423 118.271Z" fill="#9F616A"/>
<path d="M180.29 30.6996C183.821 30.6996 186.683 27.832 186.683 24.2947C186.683 20.7573 183.821 17.8897 180.29 17.8897C176.759 17.8897 173.896 20.7573 173.896 24.2947C173.896 27.832 176.759 30.6996 180.29 30.6996Z" fill="#9F616A"/>
<path d="M176.432 48.258L174.889 47.5954C174.889 47.5954 172.243 46.0494 172.022 42.9574C171.802 39.8653 174.227 35.8898 174.227 35.8898L177.755 34.7855L181.899 38.1648L181.943 43.62L176.432 48.258Z" fill="#9F616A"/>
<path d="M174.888 36.3315L174.007 35.8898C174.007 35.8898 169.597 35.669 169.156 40.9696C168.715 46.2703 167.172 55.1047 167.172 55.1047C167.172 55.1047 163.645 61.2888 163.865 67.9146L162.102 73.657C162.102 73.657 159.677 82.0497 162.543 82.0497C165.409 82.0497 165.188 72.9944 165.188 72.9944C165.188 72.9944 170.479 60.1845 170.92 57.9759C171.361 55.7673 175.109 45.3868 174.007 42.5156C172.904 39.6445 174.888 36.3315 174.888 36.3315Z" fill="#9F616A"/>
<path d="M178.195 50.2458V52.6752C178.195 52.6752 179.739 54.4421 179.077 55.5464C178.416 56.6507 177.755 58.8593 177.755 58.8593L180.841 63.7182L191.203 64.6017L193.263 50.7714L178.195 50.2458Z" fill="#9F616A"/>
<path d="M187.896 34.7855L189.66 33.9021C189.66 33.9021 193.407 31.2518 196.494 30.8101L205.974 24.4051L212.147 9.60745C212.147 9.60745 211.926 1.65647 213.69 2.53991C215.454 3.42335 215.233 10.27 215.233 10.27C215.233 10.27 211.926 23.9634 209.06 27.718C206.194 31.4726 195.833 37.6567 195.833 37.6567C195.833 37.6567 192.967 40.9696 193.187 42.5157C193.407 44.0617 187.896 34.7855 187.896 34.7855Z" fill="#9F616A"/>
<path d="M179.739 58.8593C179.739 58.8593 177.314 57.3133 175.77 59.9636C174.227 62.614 171.361 63.2765 169.597 71.2275C167.834 79.1785 163.645 91.7676 162.543 92.651C161.44 93.5344 156.811 102.811 159.456 115.841H163.865L167.613 97.0682C167.613 97.0682 179.739 82.0497 180.621 75.8656L184.589 99.0559C184.589 99.0559 184.809 107.89 188.116 112.087L191.644 120.479L196.273 118.271L190.982 97.0682C190.982 97.0682 193.628 75.6447 191.864 69.6815L191.611 61.8636C191.611 61.8636 184.368 62.1722 179.739 58.8593Z" fill="#2F2E41"/>
<path d="M161.22 120.038H158.574C158.133 120.038 154.606 122.909 156.149 124.455C157.692 126.001 160.117 128.872 160.117 128.872C160.117 128.872 168.716 129.968 168.936 128.422C169.156 126.876 165.188 123.571 165.188 123.571L164.086 120.038C164.086 120.038 161.881 117.608 161.22 120.038Z" fill="#2F2E41"/>
<path d="M196.273 122.246C196.273 122.246 192.526 122.025 191.864 121.805C191.203 121.584 189.88 127.547 191.864 127.989C193.848 128.43 202.006 129.093 202.006 129.093C202.006 129.093 208.399 128.872 207.958 127.105C207.517 125.338 198.919 121.805 198.919 121.805C198.919 121.805 197.817 119.596 196.273 122.246Z" fill="#2F2E41"/>
<path d="M178.857 34.5647L177.755 33.9021L176.432 35.0064C176.432 35.0064 180.4 37.6567 179.518 40.0862C178.636 42.5156 174.889 47.5954 174.889 47.5954C174.889 47.5954 178.195 51.3501 178.195 52.6752C178.195 52.6752 186.794 49.5832 193.187 52.6752C193.187 52.6752 193.187 48.258 194.069 47.3746C194.951 46.4912 195.392 43.3991 193.187 40.7488C191.634 38.7986 190.233 36.7311 188.998 34.5647L186.794 33.2395L185.658 33.6003C185.658 33.6003 187.896 36.1107 185.691 36.3316C183.487 36.5524 179.959 35.8898 178.857 34.5647Z" fill="#FCC006"/>
<path d="M187.147 6.40495C186.397 7.24253 185.372 7.78087 184.258 7.9209C182.332 8.19653 183.845 11.2284 183.845 11.2284C183.845 11.2284 183.295 10.1259 184.395 9.16123C185.496 8.19653 187.147 7.64528 187.147 6.40495Z" fill="#2F2E41"/>
<path d="M183.433 14.2413C184.745 14.2413 185.808 13.1762 185.808 11.8624C185.808 10.5486 184.745 9.48351 183.433 9.48351C182.122 9.48351 181.059 10.5486 181.059 11.8624C181.059 13.1762 182.122 14.2413 183.433 14.2413Z" fill="#2F2E41"/>
<path d="M186.206 14.2048C184.371 13.2449 181.215 12.4899 179.539 12.5439L179.963 10.9193C181.447 11.9296 184.586 12.6987 186.63 12.5803L186.206 14.2048Z" fill="#FCC006"/>
<path d="M182.416 14.3478C182.416 14.3478 179.525 18.0712 173.743 18.8987C167.962 19.7261 172.504 28.8278 172.504 28.8278C172.504 28.8278 170.852 25.5181 174.156 22.6221C177.46 19.7261 182.416 18.0712 182.416 14.3478Z" fill="#2F2E41"/>
<path d="M182.636 14.1269C182.636 14.1269 184.288 19.9189 186.766 20.7464C189.244 21.5738 188.005 30.2618 183.875 31.0892C183.875 31.0892 187.385 26.3315 185.32 22.6081C183.256 18.8847 182.017 15.9887 182.636 14.1269Z" fill="#2F2E41"/>
<path d="M221.517 4.41721H206.305V6.18409H221.517V4.41721Z" fill="#2F2E41"/>
<path d="M221.517 10.6013C222.247 10.6013 222.839 8.22812 222.839 5.30065C222.839 2.37318 222.247 0 221.517 0C220.786 0 220.194 2.37318 220.194 5.30065C220.194 8.22812 220.786 10.6013 221.517 10.6013Z" fill="#2F2E41"/>
<path d="M206.305 10.6013C207.035 10.6013 207.627 8.22812 207.627 5.30065C207.627 2.37318 207.035 0 206.305 0C205.574 0 204.982 2.37318 204.982 5.30065C204.982 8.22812 205.574 10.6013 206.305 10.6013Z" fill="#2F2E41"/>
<path d="M229.233 123.244H214.021V125.011H229.233V123.244Z" fill="#2F2E41"/>
<path d="M229.233 129.429C229.963 129.429 230.556 127.055 230.556 124.128C230.556 121.2 229.963 118.827 229.233 118.827C228.502 118.827 227.91 121.2 227.91 124.128C227.91 127.055 228.502 129.429 229.233 129.429Z" fill="#2F2E41"/>
<path d="M214.021 129.429C214.751 129.429 215.344 127.055 215.344 124.128C215.344 121.2 214.751 118.827 214.021 118.827C213.29 118.827 212.698 121.2 212.698 124.128C212.698 127.055 213.29 129.429 214.021 129.429Z" fill="#2F2E41"/>
<path opacity="0.3" d="M53.8889 121.812C53.8889 115.304 49.8665 110.028 44.9046 110.028C41.7859 110.028 39.0392 112.113 37.4283 115.278C36.8751 115.091 36.2952 114.995 35.7113 114.995C34.2014 115.02 32.7599 115.63 31.6884 116.696C30.2363 112.75 27.1571 110.028 23.593 110.028C20.2606 110.028 17.3542 112.409 15.8031 115.944C14.8933 115.332 13.824 115.002 12.7283 114.995C8.9203 114.995 5.83333 119.044 5.83333 124.039C5.82218 125.724 6.19364 127.389 6.91961 128.909H52.077C53.2879 126.742 53.9125 124.296 53.8889 121.812Z" fill="#FCC006"/>
</g>
<defs>
<clipPath id="clip0">
<rect width="300" height="164" fill="white"/>
</clipPath>
</defs>
</svg>
